<?xml version="1.0" encoding="UTF-8" standalone="no"?>
<!-- Created with Inkscape (http://www.inkscape.org/) -->
<svg
   xmlns:dc="http://purl.org/dc/elements/1.1/"
   xmlns:cc="http://web.resource.org/cc/"
   xmlns:rdf="http://www.w3.org/1999/02/22-rdf-syntax-ns#"
   xmlns:svg="http://www.w3.org/2000/svg"
   xmlns="http://www.w3.org/2000/svg"
   xmlns:sodipodi="http://sodipodi.sourceforge.net/DTD/sodipodi-0.dtd"
   xmlns:inkscape="http://www.inkscape.org/namespaces/inkscape"
   id="svg2"
   sodipodi:version="0.32"
   inkscape:version="0.45.1"
   width="1000"
   height="1000"
   version="1.0"
   sodipodi:docbase="/users/cortex/rougier/Desktop"
   sodipodi:docname="baby-gnu.svg"
   inkscape:output_extension="org.inkscape.output.svg.inkscape"
   inkscape:export-filename="/users/cortex/rougier/Desktop/baby-gnu.png"
   inkscape:export-xdpi="27"
   inkscape:export-ydpi="27">
  <metadata
     id="metadata7">
    <rdf:RDF>
      <cc:Work
         rdf:about="">
        <dc:format>image/svg+xml</dc:format>
        <dc:type
           rdf:resource="http://purl.org/dc/dcmitype/StillImage" />
        <dc:title>Baby GNU</dc:title>
        <dc:date>11/12/2007</dc:date>
        <dc:creator>
          <cc:Agent>
            <dc:title>Nicolas Rougier</dc:title>
          </cc:Agent>
        </dc:creator>
        <cc:license
           rdf:resource="http://artlibre.org/licence.php/lalgb.html" />
        <dc:description>Baby GNU vector</dc:description>
      </cc:Work>
      <cc:License
         rdf:about="http://artlibre.org/licence.php/lalgb.html">
        <cc:permits
           rdf:resource="http://web.resource.org/cc/Reproduction" />
        <cc:permits
           rdf:resource="http://web.resource.org/cc/Distribution" />
        <cc:permits
           rdf:resource="http://web.resource.org/cc/DerivativeWorks" />
        <cc:requires
           rdf:resource="http://web.resource.org/cc/ShareAlike" />
        <cc:requires
           rdf:resource="http://web.resource.org/cc/Notice" />
        <cc:requires
           rdf:resource="http://web.resource.org/cc/Attribution" />
      </cc:License>
    </rdf:RDF>
  </metadata>
  <defs
     id="defs5" />
  <sodipodi:namedview
     inkscape:window-height="946"
     inkscape:window-width="1214"
     inkscape:pageshadow="2"
     inkscape:pageopacity="0.0"
     guidetolerance="10.0"
     gridtolerance="10.0"
     objecttolerance="10.0"
     borderopacity="1.0"
     bordercolor="#666666"
     pagecolor="#ffffff"
     id="base"
     inkscape:zoom="0.763"
     inkscape:cx="500"
     inkscape:cy="500"
     inkscape:window-x="185"
     inkscape:window-y="29"
     inkscape:current-layer="svg2"
     inkscape:showpageshadow="false" />
  <path
     style="fill:#4a3118;stroke:none;stroke-width:10;stroke-opacity:1;fill-opacity:1"
     d="M 252.5,338.91217 C 215.41041,332.41703 191.81862,321.39135 168.17757,299.50391 C 146.74036,279.65683 124.37715,240.08476 118.16171,211 C 115.69592,199.46148 114.00802,182.08112 114.00342,168.18189 C 113.99468,141.80486 123.877,102.03405 132.74687,92.75 C 134.82759,90.57212 136.28136,90 139.73471,90 C 143.61039,90 144.62949,90.534248 148.90001,94.804767 C 157.25808,103.16284 169.7809,126.41777 177.44993,147.82209 C 182.68139,162.42313 195.02023,189.68498 199.34889,196.20638 C 204.12971,203.40899 212.88391,211.61876 218.37193,214.04638 C 222.38458,215.82136 223.13708,215.86308 227.49311,214.55211 C 239.37364,210.9766 251.53329,199.68485 276.40516,169.13118 C 316.96241,119.30895 336.5319,101.71847 369.5,85.450799 C 390.70814,74.985925 409.17867,69.10702 432.5,65.398809 C 447.66238,62.987912 475.71216,63.014944 490.12761,65.454346 C 500.3364,67.181892 501.12457,67.182518 510.12761,65.470245 C 523.99775,62.832305 553.29705,63.001425 570.0381,65.816055 C 609.26291,72.410824 643.5086,88.331807 673.0163,113.69109 C 686.35554,125.15501 699.42729,139.48769 723.579,169.13118 C 748.48614,199.70189 760.63378,210.97883 772.50689,214.55211 C 776.86292,215.86308 777.61542,215.82136 781.62807,214.04638 C 787.12836,211.61334 795.87321,203.4046 800.68073,196.16176 C 805.03844,189.59658 817.17275,162.82679 822.46539,148.10209 C 830.29349,126.32344 842.73084,103.17392 851.09999,94.804767 C 855.37051,90.534248 856.38961,90 860.26529,90 C 863.71864,90 865.17241,90.57212 867.25313,92.75 C 876.22889,102.1449 886,141.79664 886,168.82594 C 886,200.82513 880.66534,223.44973 866.56055,251.26975 C 845.68648,292.44137 815.96548,319.26667 777.18146,331.9407 C 768.94078,334.63363 749.67699,338.79955 737.8654,340.44306 C 732.64377,341.16962 730,339.54837 730,335.61974 C 730,333.37517 728.45034,330.61379 717.30604,313 C 714.00016,307.775 706.97062,295.26087 701.68484,285.19083 C 696.39906,275.12078 690.63121,264.99578 688.8674,262.69083 C 674.15565,243.46543 654.80181,231.42251 621.21561,220.59454 C 615.32202,218.69449 597.9,212.66878 582.5,207.20407 C 533.95959,189.97945 510.11312,183 499.80272,183 C 491.7205,183 465.95838,190.30984 431,202.52234 C 412.575,208.95901 389.85,216.83446 380.5,220.02334 C 348.59236,230.90569 335.6084,237.72325 321.65816,250.91976 C 313.40143,258.73038 308.16926,266.41707 298.2627,285.29052 C 293.00577,295.30573 285.99984,307.775 282.69396,313 C 271.54966,330.61379 270,333.37517 270,335.61974 C 270,338.29606 267.51135,341.03147 265.17857,340.91924 C 264.25536,340.87483 258.55,339.97164 252.5,338.91217 z "
     id="horns"
     sodipodi:nodetypes="csssssssssssssssssssssssssssssssssssssssssssc"
     inkscape:label="Horns" />


</svg>
